<svg xmlns="http://www.w3.org/2000/svg" xml:space="preserve" width="392.595" height="282.245" style="shape-rendering:geometricPrecision;text-rendering:geometricPrecision;image-rendering:optimizeQuality;fill-rule:evenodd;clip-rule:evenodd" viewBox="0 0 6166.44 4433.2"><defs><style>.str0,.str1{stroke:#000;stroke-width:29.68;stroke-linecap:round;stroke-linejoin:round;stroke-miterlimit:22.9256}.str1{stroke:#3f59bf;stroke-width:14.84}.fil0{fill:none}.fil1{fill:#3f59bf;fill-rule:nonzero}</style></defs><g id="Layer_x0020_1"><g id="_1850487025408"><path d="M781.23 3731.77 3336.56 810.72V41.37L781.23 1707.17z" class="fil0 str0"/><path d="M1359.69 3731.77 3556.38 810.72h-219.82L781.23 3731.77z" class="fil0 str0"/><path d="M1359.69 1707.17 3556.38 41.37v769.35L1359.69 3731.77zM781.23 1707.17 3336.56 41.37h219.82l-2196.69 1665.8z" class="fil0 str0"/></g><path d="M781.23 1707.17h578.46v2024.6H781.23z" class="fil0 str0"/><g id="_1850487026368"><path d="m3728.65 3731.77 1158.6-2927.34V14.84l-1158.6 1692.33z" class="fil0 str0"/><path d="m4307.11 3731.77 805.74-2927.34h-225.6l-1158.6 2927.34z" class="fil0 str0"/><path d="M4307.11 1707.17 5112.85 14.84v789.59l-805.74 2927.34z" class="fil0 str0"/><path d="M3728.65 1707.17 4887.25 14.84h225.6l-805.74 1692.33z" class="fil0 str0"/></g><path d="M3728.65 1707.17h578.46v2024.6h-578.46z" class="fil0 str0"/><g id="_1850487028336"><path d="M1070.46 3880.18v545.6M4017.88 3880.18v545.6" class="fil0 str1"/><path d="m3796.27 4217.98 221.61 59.38-221.61 59.38v-118.77zm110.81 51.96c4.1 0 7.42 3.32 7.42 7.42s-3.32 7.42-7.42 7.42v-14.84zm-2725.81 0h2725.81v14.84H1181.27v-14.84zm110.81-51.96v118.77l-221.61-59.38 221.61-59.38zm-110.81 66.8c-4.1 0-7.42-3.32-7.42-7.42s3.32-7.42 7.42-7.42v14.84z" class="fil1"/></g><path d="m4450.19 3771.15 903.09 248.57M5112.85 804.43l1046.17 287.96" class="fil0 str1"/><path d="m5899.87 1250.92 116.06-197.91-1.56 229.43-114.5-31.52zm79.51-93.05c1.09-3.95 5.18-6.27 9.12-5.18 3.95 1.09 6.27 5.18 5.18 9.12l-14.31-3.94zm-746.93 2713.67 746.93-2713.67 14.31 3.94-746.93 2713.67-14.31-3.94zm-20.69-120.62 114.5 31.52-116.06 197.91 1.56-229.43zm35 124.57c-1.09 3.95-5.18 6.27-9.12 5.18-3.95-1.09-6.27-5.18-5.18-9.12l14.31 3.94z" class="fil1"/><path d="M632.82 3731.77H7.42M632.82 1707.17H7.42" class="fil0 str1"/><path d="m96.45 1928.78 59.38-221.61 59.38 221.61H96.44zm51.96-110.81c0-4.1 3.32-7.42 7.42-7.42s7.42 3.32 7.42 7.42h-14.84zm0 1802.99V1817.97h14.84v1802.99h-14.84zm-51.96-110.81h118.77l-59.38 221.61-59.38-221.61zm66.8 110.81c0 4.1-3.32 7.42-7.42 7.42s-7.42-3.32-7.42-7.42h14.84z" class="fil1"/><path d="M1359.69 1558.75V663.01M781.23 1558.75V663.01" class="fil0 str1"/><path d="m1002.84 870.8-221.61-59.38 221.61-59.38v118.77zm-110.81-51.96c-4.1 0-7.42-3.32-7.42-7.42s3.32-7.42 7.42-7.42v14.84zm356.85 0H892.03V804h356.85v14.84zm-110.81 51.96V752.03l221.61 59.38-221.61 59.38zm110.81-66.8c4.1 0 7.42 3.32 7.42 7.42s-3.32 7.42-7.42 7.42V804z" class="fil1"/></g></svg>